<svg width="110" height="110" viewBox="0 0 110 110" fill="none" xmlns="http://www.w3.org/2000/svg">
<path d="M88.5769 26.4812C91.6666 31.1053 91.6666 37.5424 91.6666 50.4167C91.6666 63.2909 91.6666 69.728 88.5769 74.3521C87.2394 76.3539 85.5206 78.0727 83.5188 79.4103C79.4792 82.1094 74.0561 82.4506 64.1666 82.4938V82.5L59.0994 92.6344C57.4104 96.0126 52.5896 96.0126 50.9005 92.6344L45.8333 82.5V82.4938C35.9438 82.4506 30.5207 82.1094 26.4812 79.4103C24.4794 78.0727 22.7606 76.3539 21.423 74.3521C18.3333 69.728 18.3333 63.2909 18.3333 50.4167C18.3333 37.5424 18.3333 31.1053 21.423 26.4812C22.7606 24.4794 24.4794 22.7606 26.4812 21.4231C31.1053 18.3333 37.5424 18.3333 50.4166 18.3333H59.5833C72.4576 18.3333 78.8947 18.3333 83.5188 21.4231C85.5206 22.7606 87.2394 24.4794 88.5769 26.4812Z" stroke="#33363F" stroke-width="5" stroke-linecap="round" stroke-linejoin="round"/>
<path d="M41.25 41.25L68.75 41.25" stroke="#33363F" stroke-width="5" stroke-linecap="round" stroke-linejoin="round"/>
<path d="M41.25 59.5833H55" stroke="#33363F" stroke-width="5" stroke-linecap="round" stroke-linejoin="round"/>
</svg>
