<svg width="110" height="110" viewBox="0 0 110 110" fill="none" xmlns="http://www.w3.org/2000/svg">
<path d="M18.3333 49.0333C18.3333 47.9132 18.3333 47.3532 18.5513 46.9253C18.743 46.549 19.049 46.2431 19.4253 46.0513C19.8532 45.8333 20.4132 45.8333 21.5333 45.8333H44.5078C44.997 45.8333 45.2416 45.8333 45.4718 45.8886C45.6759 45.9376 45.8709 46.0184 46.0499 46.128C46.2517 46.2517 46.4247 46.4247 46.7706 46.7706L58.6461 58.6461C58.992 58.992 59.1649 59.1649 59.3667 59.2886C59.5457 59.3983 59.7408 59.4791 59.9449 59.5281C60.175 59.5833 60.4196 59.5833 60.9088 59.5833H88.4666C89.5868 59.5833 90.1468 59.5833 90.5746 59.8013C90.951 59.9931 91.2569 60.299 91.4487 60.6753C91.6666 61.1032 91.6666 61.6632 91.6666 62.7833V93.05C91.6666 94.1701 91.6666 94.7302 91.4487 95.158C91.2569 95.5343 90.951 95.8403 90.5746 96.032C90.1468 96.25 89.5868 96.25 88.4666 96.25H21.5333C20.4132 96.25 19.8532 96.25 19.4253 96.032C19.049 95.8403 18.743 95.5343 18.5513 95.158C18.3333 94.7302 18.3333 94.1701 18.3333 93.05V49.0333Z" stroke="#33363F" stroke-width="5"/>
<path d="M82.5 59.5833V32.0833L68.75 18.3333H30.7C29.5799 18.3333 29.0198 18.3333 28.592 18.5513C28.2157 18.7431 27.9097 19.049 27.718 19.4253C27.5 19.8532 27.5 20.4132 27.5 21.5333V45.8333" stroke="#33363F" stroke-width="5" stroke-linejoin="round"/>
<path d="M59.5833 18.3333V39.65C59.5833 40.21 59.5833 40.4901 59.6923 40.704C59.7882 40.8921 59.9412 41.0451 60.1293 41.141C60.3432 41.25 60.6233 41.25 61.1833 41.25H82.5" stroke="#33363F" stroke-width="5" stroke-linejoin="round"/>
</svg>
