<svg width="110" height="110" viewBox="0 0 110 110" fill="none" xmlns="http://www.w3.org/2000/svg">
<path d="M22.9167 58.4815C22.9167 52.2585 22.9167 49.147 24.1746 46.4119C25.4326 43.6768 27.795 41.6519 32.5199 37.602L37.1033 33.6734C45.6435 26.3532 49.9136 22.6931 55 22.6931C60.0865 22.6931 64.3566 26.3532 72.8968 33.6734L77.4801 37.602C82.205 41.6519 84.5675 43.6768 85.8254 46.4119C87.0833 49.147 87.0833 52.2585 87.0833 58.4815V77.9167C87.0833 86.5591 87.0833 90.8803 84.3985 93.5651C81.7136 96.25 77.3924 96.25 68.75 96.25H41.25C32.6076 96.25 28.2864 96.25 25.6015 93.5651C22.9167 90.8803 22.9167 86.5591 22.9167 77.9167V58.4815Z" stroke="#33363F" stroke-width="5"/>
<path d="M66.4584 96.25V69.75C66.4584 69.1977 66.0106 68.75 65.4584 68.75H44.5417C43.9894 68.75 43.5417 69.1977 43.5417 69.75V96.25" stroke="#33363F" stroke-width="5" stroke-linecap="round" stroke-linejoin="round"/>
</svg>
